<svg version="1.0" xmlns="http://www.w3.org/2000/svg"
width="456.000000pt" height="142.000000pt" viewBox="0 0 456.000000 142.000000"
preserveAspectRatio="xMidYMid meet">
<g transform="translate(0.000000,142.000000) scale(0.100000,-0.100000)"
fill="#ff0000" stroke="#000000" stroke-width="4" stroke-linejoin="round" stroke-linecap="round"> 
<path d="M1890 1316 c0 -1 5 -17 11 -35 9 -25 17 -31 39 -31 31 0 31 1 105
-265 47 -168 64 -214 86 -225 10 -6 143 -10 308 -10 l290 0 20 27 c12 14 19
28 17 30 -2 2 -120 4 -262 4 -190 -1 -266 2 -284 12 -19 10 -29 30 -48 97 -12
47 -34 122 -48 168 -14 45 -22 87 -19 92 8 13 632 14 639 1 11 -17 -46 -162
-69 -177 -18 -11 -52 -14 -166 -12 l-144 3 -11 35 c-11 33 -15 35 -58 38 -25
2 -46 1 -46 -2 0 -11 29 -117 35 -126 4 -6 93 -10 229 -10 l223 0 25 25 c21
21 72 165 95 273 l5 22 -381 0 -381 0 -17 28 c-10 15 -22 30 -28 34 -10 8
-165 11 -165 4z"/> 
<path d="M187 1242 c-37 -39 -38 -98 -1 -133 23 -21 36 -24 120 -27 l94 -4 0
-218 c0 -203 1 -219 20 -243 31 -40 81 -52 125 -31 61 28 65 47 65 282 l0 210
81 4 c74 3 83 6 105 31 30 35 32 95 5 128 l-19 24 -284 3 -283 3 -28 -29z"/> 
<path d="M4282 1254 c-13 -9 -34 -41 -48 -71 -33 -77 -33 -149 3 -214 14 -27
31 -49 38 -49 6 0 39 60 73 134 67 145 70 166 20 200 -29 20 -57 20 -86 0z"/> 
<path d="M3579 1231 l-29 -29 0 -247 c0 -267 3 -282 56 -324 25 -19 40 -21
185 -21 146 0 161 2 179 20 12 12 20 33 20 55 0 62 -24 75 -141 75 -55 0 -109
5 -120 10 -18 10 -19 23 -19 221 l0 211 -29 29 c-37 37 -65 37 -102 0z"/> 
<path d="M1052 1230 c-198 -41 -314 -262 -231 -441 59 -127 159 -193 289 -194
64 0 82 4 122 28 26 15 52 36 58 47 17 31 12 68 -12 84 -30 21 -67 20 -119 -4
-84 -38 -154 -17 -196 58 -60 106 -25 225 82 273 41 19 106 25 119 12 4 -4
-29 -41 -74 -83 -70 -64 -82 -80 -82 -108 -1 -44 30 -76 75 -76 29 0 51 15
140 92 164 143 173 163 112 231 -61 67 -182 102 -283 81z"/> 
<path d="M3033 1209 c-61 -24 -132 -89 -164 -150 -31 -61 -38 -187 -14 -258
35 -108 150 -196 270 -208 60 -6 154 13 162 33 8 22 -48 115 -66 110 -77 -23
-132 -12 -188 37 -62 54 -80 137 -48 214 21 50 42 72 90 94 72 33 170 15 219
-39 l18 -21 52 29 c28 16 52 34 55 41 6 19 -89 98 -145 119 -72 26 -171 26
-241 -1z"/> 
<path d="M3879 1201 c-41 -42 -37 -71 24 -176 194 -327 230 -386 247 -395 32
-17 77 -11 107 14 52 45 43 74 -101 321 -70 121 -139 230 -153 243 -36 32 -87
30 -124 -7z"/> 
<path d="M1440 1190 c-19 -19 -20 -33 -20 -289 l0 -270 26 -20 c34 -26 68 -27
94 -1 18 18 20 33 20 164 0 80 4 147 8 150 4 2 62 -61 127 -141 66 -80 131
-156 144 -169 29 -29 60 -31 95 -3 l26 20 0 270 c0 256 -1 270 -20 289 -27 27
-81 26 -106 -1 -17 -19 -19 -37 -19 -159 0 -76 -3 -141 -6 -144 -3 -4 -68 68
-143 159 -129 155 -140 165 -172 165 -21 0 -42 -8 -54 -20z"/> 
<path d="M3373 970 c-12 -5 -29 -20 -38 -34 -15 -23 -16 -40 -6 -158 7 -86 16
-140 27 -155 32 -49 93 -54 136 -11 19 19 20 27 14 137 -9 143 -19 184 -53
210 -28 23 -45 25 -80 11z"/> 
<path d="M2127 692 c-22 -25 -21 -75 1 -95 40 -37 112 -6 112 48 0 53 -78 86
-113 47z"/> 
<path d="M2651 684 c-27 -34 -26 -55 2 -82 32 -30 71 -28 96 4 12 15 21 32 21
39 0 27 -41 65 -70 65 -19 0 -36 -9 -49 -26z"/> 
<path d="M1982 523 c-28 -6 -44 -35 -40 -75 2 -26 12 -37 48 -58 53 -31 59
-59 16 -75 -25 -9 -31 -6 -51 19 -23 28 -45 28 -45 0 0 -27 38 -54 78 -54 45
0 77 20 86 55 9 35 -8 61 -54 85 -45 23 -52 32 -44 54 8 21 63 21 70 1 6 -16
44 -21 44 -6 0 5 -8 18 -17 29 -19 23 -54 32 -91 25z"/> 
<path d="M2390 523 c-14 -3 -40 -16 -58 -29 -68 -52 -83 -135 -33 -185 25 -25
37 -29 83 -29 74 0 117 25 147 84 20 40 22 54 15 84 -14 56 -81 89 -154 75z
m82 -50 c12 -10 18 -30 18 -56 0 -31 -7 -46 -34 -73 -68 -68 -150 -22 -125 70
18 65 97 99 141 59z"/> 
<path d="M2120 505 c0 -9 9 -15 25 -15 30 0 30 -7 10 -113 -18 -97 -18 -97 0
-97 20 0 24 12 44 118 16 87 16 87 49 90 20 2 32 9 32 18 0 11 -17 14 -80 14
-64 0 -80 -3 -80 -15z"/> 
<path d="M2602 431 c-7 -49 -15 -103 -18 -120 -6 -27 -4 -31 15 -31 15 0 21 6
21 23 0 31 11 67 20 67 5 0 20 -20 34 -45 17 -29 34 -45 46 -45 25 0 25 -2 -6
54 -15 26 -25 48 -23 49 37 20 46 28 59 50 13 24 13 30 0 55 -14 24 -22 27
-76 30 l-60 3 -12 -90z m106 27 c3 -22 -2 -29 -22 -34 -30 -7 -46 1 -46 25 0
46 63 55 68 9z"/> 
<path d="M2815 508 c-9 -25 -35 -173 -35 -200 0 -28 0 -28 69 -28 39 0 73 5
76 11 12 19 -5 25 -83 28 -20 1 -23 6 -20 34 3 31 4 32 56 35 66 4 74 29 10
34 -40 3 -43 5 -43 33 0 29 2 30 54 35 31 3 56 10 59 18 3 9 -15 12 -67 12
-48 0 -73 -4 -76 -12z"/> 
<path d="M663 461 c-111 -51 -139 -223 -50 -312 143 -142 380 -6 327 189 -13
51 -63 110 -107 128 -46 20 -121 17 -170 -5z m125 -37 c30 -8 28 -22 -8 -59
-32 -33 -33 -58 -3 -70 11 -4 30 7 54 31 l38 37 11 -27 c23 -61 1 -133 -52
-166 -49 -31 -128 -24 -168 15 -72 69 -54 186 33 226 45 20 60 22 95 13z"/> 
<path d="M3828 466 c-41 -18 -78 -56 -99 -101 -77 -167 108 -338 272 -252 110
58 135 214 50 311 -44 50 -157 72 -223 42z m165 -68 c31 -22 57 -73 57 -110
-1 -45 -36 -104 -73 -121 -121 -58 -243 47 -197 168 l10 27 40 -36 c46 -42 55
-44 71 -15 9 18 6 26 -20 53 -17 18 -31 37 -31 43 0 29 99 22 143 -9z"/> 
</g> 
</svg>

